<svg xmlns="http://www.w3.org/2000/svg" xmlns:xlink="http://www.w3.org/1999/xlink" width="1920" zoomAndPan="magnify" viewBox="0 0 1440 809.999993" height="1080" preserveAspectRatio="xMidYMid meet" version="1.0"><defs><clipPath id="2d2d83dac7"><path d="M 0 514.464844 L 1440 514.464844 L 1440 810 L 0 810 Z M 0 514.464844 " clip-rule="nonzero"/></clipPath><clipPath id="4ac4c79ca6"><path d="M 416 81 L 1055.921875 81 L 1055.921875 721 L 416 721 Z M 416 81 " clip-rule="nonzero"/></clipPath></defs><g clip-path="url(#2d2d83dac7)"><path fill="#ffffff" d="M -12.703125 514.464844 L 1460.484375 514.464844 L 1460.484375 872.003906 L -12.703125 872.003906 Z M -12.703125 514.464844 " fill-opacity="1" fill-rule="nonzero"/></g><g clip-path="url(#4ac4c79ca6)"><path fill="#524781" d="M 736.539062 80.757812 C 731.308594 80.757812 726.082031 80.886719 720.855469 81.144531 C 715.632812 81.402344 710.417969 81.785156 705.210938 82.296875 C 700.003906 82.8125 694.816406 83.449219 689.640625 84.21875 C 684.464844 84.984375 679.3125 85.878906 674.183594 86.902344 C 669.054688 87.921875 663.949219 89.066406 658.875 90.339844 C 653.800781 91.609375 648.761719 93.003906 643.757812 94.523438 C 638.75 96.039062 633.785156 97.679688 628.859375 99.441406 C 623.9375 101.207031 619.058594 103.085938 614.222656 105.089844 C 609.390625 107.089844 604.609375 109.210938 599.882812 111.445312 C 595.152344 113.683594 590.484375 116.035156 585.871094 118.5 C 581.257812 120.964844 576.707031 123.542969 572.21875 126.234375 C 567.734375 128.921875 563.316406 131.71875 558.964844 134.625 C 554.617188 137.53125 550.339844 140.542969 546.140625 143.660156 C 541.9375 146.773438 537.816406 149.992188 533.769531 153.3125 C 529.726562 156.628906 525.769531 160.042969 521.890625 163.558594 C 518.015625 167.070312 514.230469 170.675781 510.53125 174.375 C 506.832031 178.074219 503.226562 181.859375 499.714844 185.738281 C 496.199219 189.613281 492.785156 193.574219 489.464844 197.617188 C 486.148438 201.660156 482.929688 205.78125 479.8125 209.984375 C 476.699219 214.183594 473.6875 218.460938 470.78125 222.808594 C 467.875 227.160156 465.078125 231.578125 462.386719 236.0625 C 459.699219 240.550781 457.121094 245.101562 454.65625 249.714844 C 452.191406 254.328125 449.839844 258.996094 447.601562 263.726562 C 445.367188 268.457031 443.246094 273.234375 441.246094 278.070312 C 439.242188 282.902344 437.359375 287.78125 435.597656 292.707031 C 433.835938 297.628906 432.195312 302.597656 430.675781 307.601562 C 429.160156 312.605469 427.765625 317.648438 426.492188 322.722656 C 425.222656 327.796875 424.078125 332.898438 423.054688 338.027344 C 422.035156 343.160156 421.140625 348.3125 420.375 353.484375 C 419.605469 358.660156 418.964844 363.847656 418.453125 369.054688 C 417.941406 374.261719 417.554688 379.476562 417.300781 384.699219 C 417.042969 389.925781 416.914062 395.152344 416.914062 400.382812 C 416.914062 405.613281 417.042969 410.84375 417.300781 416.066406 C 417.554688 421.292969 417.941406 426.507812 418.453125 431.710938 C 418.964844 436.917969 419.605469 442.109375 420.375 447.28125 C 421.140625 452.457031 422.035156 457.609375 423.054688 462.738281 C 424.078125 467.871094 425.222656 472.972656 426.492188 478.046875 C 427.765625 483.121094 429.160156 488.160156 430.675781 493.167969 C 432.195312 498.171875 433.835938 503.136719 435.597656 508.0625 C 437.359375 512.988281 439.242188 517.867188 441.246094 522.699219 C 443.246094 527.53125 445.367188 532.3125 447.601562 537.042969 C 449.839844 541.769531 452.1875 546.441406 454.65625 551.054688 C 457.121094 555.667969 459.699219 560.21875 462.386719 564.703125 C 465.078125 569.191406 467.875 573.609375 470.78125 577.957031 C 473.6875 582.308594 476.699219 586.582031 479.8125 590.785156 C 482.929688 594.984375 486.148438 599.109375 489.464844 603.152344 C 492.785156 607.195312 496.199219 611.15625 499.710938 615.03125 C 503.226562 618.90625 506.832031 622.695312 510.53125 626.394531 C 514.230469 630.089844 518.015625 633.699219 521.890625 637.210938 C 525.769531 640.722656 529.726562 644.136719 533.769531 647.457031 C 537.816406 650.777344 541.9375 653.992188 546.140625 657.109375 C 550.339844 660.226562 554.617188 663.234375 558.964844 666.140625 C 563.3125 669.046875 567.734375 671.847656 572.21875 674.535156 C 576.707031 677.222656 581.253906 679.800781 585.867188 682.269531 C 590.480469 684.734375 595.152344 687.085938 599.882812 689.320312 C 604.609375 691.558594 609.390625 693.675781 614.222656 695.679688 C 619.058594 697.679688 623.9375 699.5625 628.859375 701.324219 C 633.785156 703.085938 638.75 704.726562 643.757812 706.246094 C 648.761719 707.765625 653.800781 709.160156 658.875 710.429688 C 663.949219 711.699219 669.054688 712.847656 674.183594 713.867188 C 679.3125 714.886719 684.464844 715.78125 689.640625 716.550781 C 694.816406 717.316406 700.003906 717.957031 705.210938 718.46875 C 710.417969 718.980469 715.632812 719.367188 720.855469 719.625 C 726.082031 719.878906 731.308594 720.007812 736.539062 720.007812 C 741.769531 720.007812 746.996094 719.878906 752.222656 719.625 C 757.445312 719.367188 762.660156 718.980469 767.867188 718.46875 C 773.074219 717.957031 778.261719 717.316406 783.4375 716.550781 C 788.613281 715.78125 793.765625 714.886719 798.894531 713.867188 C 804.023438 712.847656 809.128906 711.699219 814.203125 710.429688 C 819.277344 709.160156 824.316406 707.765625 829.320312 706.246094 C 834.328125 704.726562 839.292969 703.085938 844.21875 701.324219 C 849.140625 699.5625 854.019531 697.679688 858.855469 695.679688 C 863.6875 693.675781 868.46875 691.558594 873.195312 689.320312 C 877.925781 687.085938 882.597656 684.734375 887.210938 682.269531 C 891.824219 679.800781 896.371094 677.222656 900.859375 674.535156 C 905.34375 671.847656 909.765625 669.046875 914.113281 666.140625 C 918.460938 663.234375 922.738281 660.226562 926.9375 657.109375 C 931.140625 653.992188 935.261719 650.777344 939.308594 647.457031 C 943.351562 644.136719 947.308594 640.722656 951.1875 637.210938 C 955.0625 633.699219 958.847656 630.089844 962.546875 626.394531 C 966.246094 622.695312 969.851562 618.90625 973.367188 615.03125 C 976.878906 611.15625 980.292969 607.195312 983.613281 603.152344 C 986.929688 599.109375 990.148438 594.984375 993.265625 590.785156 C 996.378906 586.582031 999.390625 582.308594 1002.296875 577.957031 C 1005.203125 573.609375 1008 569.191406 1010.691406 564.703125 C 1013.378906 560.21875 1015.957031 555.667969 1018.421875 551.054688 C 1020.886719 546.441406 1023.238281 541.769531 1025.476562 537.042969 C 1027.710938 532.3125 1029.832031 527.53125 1031.832031 522.699219 C 1033.835938 517.867188 1035.71875 512.988281 1037.480469 508.0625 C 1039.242188 503.136719 1040.882812 498.171875 1042.402344 493.164062 C 1043.917969 488.160156 1045.3125 483.121094 1046.585938 478.046875 C 1047.855469 472.972656 1049 467.871094 1050.023438 462.738281 C 1051.042969 457.609375 1051.9375 452.457031 1052.703125 447.28125 C 1053.472656 442.109375 1054.113281 436.917969 1054.625 431.710938 C 1055.136719 426.507812 1055.523438 421.292969 1055.777344 416.066406 C 1056.035156 410.84375 1056.164062 405.613281 1056.164062 400.382812 C 1056.164062 395.152344 1056.035156 389.925781 1055.777344 384.699219 C 1055.523438 379.476562 1055.136719 374.261719 1054.625 369.054688 C 1054.113281 363.847656 1053.472656 358.660156 1052.703125 353.484375 C 1051.9375 348.3125 1051.042969 343.160156 1050.023438 338.027344 C 1049 332.898438 1047.855469 327.796875 1046.585938 322.722656 C 1045.3125 317.648438 1043.917969 312.605469 1042.402344 307.601562 C 1040.882812 302.597656 1039.242188 297.628906 1037.480469 292.707031 C 1035.71875 287.78125 1033.835938 282.902344 1031.832031 278.070312 C 1029.832031 273.234375 1027.710938 268.457031 1025.476562 263.726562 C 1023.238281 258.996094 1020.886719 254.328125 1018.421875 249.714844 C 1015.957031 245.101562 1013.378906 240.550781 1010.691406 236.0625 C 1008 231.578125 1005.203125 227.160156 1002.296875 222.808594 C 999.390625 218.460938 996.378906 214.183594 993.265625 209.984375 C 990.148438 205.78125 986.929688 201.660156 983.613281 197.617188 C 980.292969 193.574219 976.878906 189.613281 973.363281 185.738281 C 969.851562 181.859375 966.246094 178.074219 962.546875 174.375 C 958.847656 170.675781 955.0625 167.070312 951.1875 163.558594 C 947.308594 160.042969 943.351562 156.628906 939.308594 153.3125 C 935.261719 149.992188 931.140625 146.773438 926.9375 143.660156 C 922.738281 140.542969 918.460938 137.53125 914.113281 134.625 C 909.765625 131.71875 905.34375 128.921875 900.859375 126.234375 C 896.371094 123.542969 891.824219 120.964844 887.210938 118.5 C 882.597656 116.035156 877.925781 113.683594 873.195312 111.445312 C 868.46875 109.210938 863.6875 107.089844 858.855469 105.089844 C 854.019531 103.085938 849.140625 101.207031 844.21875 99.441406 C 839.292969 97.679688 834.328125 96.039062 829.320312 94.523438 C 824.316406 93.003906 819.277344 91.609375 814.203125 90.339844 C 809.128906 89.066406 804.023438 87.921875 798.894531 86.902344 C 793.765625 85.878906 788.613281 84.984375 783.4375 84.21875 C 778.261719 83.449219 773.074219 82.8125 767.867188 82.296875 C 762.664062 81.785156 757.445312 81.402344 752.222656 81.144531 C 746.996094 80.886719 741.769531 80.757812 736.539062 80.757812 Z M 551.320312 241.289062 L 921.765625 241.289062 C 926.167969 241.320312 930.496094 241.90625 934.746094 243.050781 C 939 244.199219 943.035156 245.863281 946.855469 248.050781 L 751.453125 384.039062 C 750.375 384.789062 749.242188 385.453125 748.0625 386.027344 C 746.882812 386.605469 745.664062 387.089844 744.410156 387.480469 C 743.15625 387.875 741.878906 388.167969 740.578125 388.367188 C 739.28125 388.566406 737.972656 388.667969 736.660156 388.667969 C 735.34375 388.667969 734.039062 388.570312 732.738281 388.371094 C 731.441406 388.175781 730.164062 387.878906 728.910156 387.488281 C 727.652344 387.097656 726.4375 386.613281 725.253906 386.039062 C 724.074219 385.460938 722.941406 384.800781 721.859375 384.054688 L 526.242188 248.046875 C 530.0625 245.863281 534.097656 244.195312 538.347656 243.050781 C 542.59375 241.90625 546.921875 241.320312 551.320312 241.289062 Z M 921.765625 559.476562 L 551.320312 559.476562 C 549.625 559.472656 547.933594 559.390625 546.242188 559.222656 C 544.554688 559.054688 542.878906 558.804688 541.214844 558.472656 C 539.554688 558.140625 537.910156 557.726562 536.285156 557.234375 C 534.664062 556.738281 533.070312 556.167969 531.5 555.515625 C 529.933594 554.867188 528.402344 554.140625 526.90625 553.34375 C 525.410156 552.542969 523.957031 551.671875 522.546875 550.726562 C 521.136719 549.785156 519.777344 548.773438 518.464844 547.699219 C 517.15625 546.621094 515.898438 545.484375 514.699219 544.285156 C 513.5 543.085938 512.363281 541.828125 511.285156 540.519531 C 510.210938 539.207031 509.199219 537.847656 508.257812 536.4375 C 507.3125 535.027344 506.441406 533.574219 505.640625 532.078125 C 504.839844 530.582031 504.117188 529.050781 503.464844 527.484375 C 502.816406 525.914062 502.246094 524.320312 501.75 522.699219 C 501.257812 521.074219 500.84375 519.429688 500.511719 517.769531 C 500.179688 516.105469 499.929688 514.429688 499.761719 512.738281 C 499.59375 511.050781 499.511719 509.359375 499.507812 507.664062 L 499.507812 293.101562 C 499.527344 288.375 500.191406 283.738281 501.492188 279.195312 C 502.792969 274.652344 504.6875 270.367188 507.175781 266.347656 L 707.066406 405.320312 C 708.148438 406.066406 709.253906 406.769531 710.386719 407.433594 C 711.519531 408.09375 712.675781 408.714844 713.855469 409.289062 C 715.035156 409.863281 716.234375 410.394531 717.453125 410.878906 C 718.671875 411.363281 719.910156 411.800781 721.160156 412.191406 C 722.414062 412.582031 723.679688 412.925781 724.957031 413.222656 C 726.238281 413.515625 727.523438 413.761719 728.824219 413.960938 C 730.121094 414.15625 731.421875 414.304688 732.730469 414.40625 C 734.039062 414.503906 735.351562 414.550781 736.664062 414.550781 C 737.976562 414.550781 739.285156 414.503906 740.59375 414.402344 C 741.902344 414.304688 743.207031 414.15625 744.503906 413.957031 C 745.800781 413.757812 747.089844 413.511719 748.367188 413.214844 C 749.644531 412.921875 750.910156 412.578125 752.164062 412.183594 C 753.417969 411.792969 754.652344 411.355469 755.871094 410.871094 C 757.089844 410.386719 758.289062 409.855469 759.46875 409.28125 C 760.648438 408.703125 761.804688 408.085938 762.9375 407.421875 C 764.070312 406.757812 765.175781 406.050781 766.253906 405.304688 L 965.910156 266.34375 C 968.398438 270.363281 970.292969 274.648438 971.59375 279.191406 C 972.898438 283.738281 973.558594 288.375 973.578125 293.101562 L 973.578125 507.664062 C 973.578125 509.359375 973.492188 511.050781 973.324219 512.742188 C 973.15625 514.429688 972.90625 516.105469 972.574219 517.769531 C 972.242188 519.433594 971.832031 521.074219 971.335938 522.699219 C 970.84375 524.320312 970.273438 525.917969 969.621094 527.484375 C 968.972656 529.050781 968.246094 530.582031 967.445312 532.078125 C 966.644531 533.574219 965.773438 535.027344 964.832031 536.4375 C 963.890625 537.847656 962.878906 539.207031 961.804688 540.519531 C 960.726562 541.832031 959.589844 543.085938 958.390625 544.285156 C 957.1875 545.484375 955.933594 546.625 954.621094 547.699219 C 953.3125 548.777344 951.949219 549.785156 950.539062 550.726562 C 949.128906 551.671875 947.675781 552.542969 946.179688 553.34375 C 944.683594 554.144531 943.152344 554.867188 941.585938 555.519531 C 940.019531 556.167969 938.425781 556.738281 936.800781 557.234375 C 935.179688 557.726562 933.535156 558.140625 931.871094 558.472656 C 930.207031 558.804688 928.53125 559.054688 926.84375 559.222656 C 925.15625 559.390625 923.464844 559.472656 921.765625 559.476562 Z M 921.765625 559.476562 " fill-opacity="1" fill-rule="nonzero"/></g></svg>