<svg xmlns="http://www.w3.org/2000/svg" xmlns:xlink="http://www.w3.org/1999/xlink" width="1920" zoomAndPan="magnify" viewBox="0 0 1440 809.999993" height="1080" preserveAspectRatio="xMidYMid meet" version="1.0"><defs><clipPath id="ec36f3251d"><path d="M 0 514.464844 L 1440 514.464844 L 1440 810 L 0 810 Z M 0 514.464844 " clip-rule="nonzero"/></clipPath><clipPath id="72792460a7"><path d="M 408.007812 98.507812 L 1039.503906 98.507812 L 1039.503906 730.007812 L 408.007812 730.007812 Z M 408.007812 98.507812 " clip-rule="nonzero"/></clipPath><clipPath id="7836eb72e3"><path d="M 859 711.074219 L 896.136719 711.074219 L 896.136719 748 L 859 748 Z M 859 711.074219 " clip-rule="nonzero"/></clipPath></defs><g clip-path="url(#ec36f3251d)"><path fill="#ffffff" d="M -12.703125 514.464844 L 1460.484375 514.464844 L 1460.484375 872.003906 L -12.703125 872.003906 Z M -12.703125 514.464844 " fill-opacity="1" fill-rule="nonzero"/></g><g clip-path="url(#72792460a7)"><path fill="#524781" d="M 723.902344 98.507812 C 718.734375 98.511719 713.570312 98.636719 708.40625 98.894531 C 703.246094 99.148438 698.09375 99.53125 692.949219 100.039062 C 687.808594 100.546875 682.679688 101.183594 677.566406 101.941406 C 672.457031 102.703125 667.367188 103.585938 662.296875 104.597656 C 657.230469 105.605469 652.1875 106.742188 647.175781 107.996094 C 642.164062 109.253906 637.183594 110.636719 632.238281 112.136719 C 627.296875 113.640625 622.390625 115.261719 617.523438 117.003906 C 612.660156 118.746094 607.839844 120.605469 603.066406 122.585938 C 598.292969 124.566406 593.570312 126.660156 588.898438 128.871094 C 584.226562 131.082031 579.613281 133.40625 575.058594 135.84375 C 570.5 138.28125 566.003906 140.832031 561.574219 143.488281 C 557.140625 146.148438 552.777344 148.914062 548.480469 151.785156 C 544.1875 154.660156 539.960938 157.632812 535.8125 160.714844 C 531.664062 163.792969 527.589844 166.972656 523.597656 170.253906 C 519.601562 173.535156 515.691406 176.910156 511.863281 180.382812 C 508.035156 183.855469 504.296875 187.417969 500.644531 191.074219 C 496.988281 194.726562 493.429688 198.472656 489.960938 202.300781 C 486.488281 206.132812 483.117188 210.042969 479.839844 214.039062 C 476.5625 218.035156 473.386719 222.109375 470.308594 226.261719 C 467.230469 230.414062 464.257812 234.640625 461.386719 238.9375 C 458.515625 243.234375 455.753906 247.601562 453.097656 252.035156 C 450.445312 256.46875 447.898438 260.964844 445.464844 265.523438 C 443.03125 270.082031 440.707031 274.695312 438.5 279.371094 C 436.292969 284.042969 434.199219 288.765625 432.222656 293.539062 C 430.246094 298.316406 428.390625 303.136719 426.648438 308.003906 C 424.910156 312.871094 423.292969 317.777344 421.792969 322.722656 C 420.292969 327.667969 418.917969 332.648438 417.664062 337.660156 C 416.410156 342.675781 415.277344 347.714844 414.273438 352.785156 C 413.265625 357.851562 412.382812 362.945312 411.628906 368.054688 C 410.871094 373.167969 410.238281 378.296875 409.734375 383.4375 C 409.230469 388.582031 408.851562 393.734375 408.597656 398.898438 C 408.347656 404.058594 408.222656 409.222656 408.222656 414.390625 C 408.226562 419.558594 408.355469 424.722656 408.609375 429.886719 C 408.863281 435.046875 409.246094 440.199219 409.753906 445.34375 C 410.261719 450.484375 410.894531 455.613281 411.65625 460.726562 C 412.414062 465.835938 413.300781 470.925781 414.308594 475.996094 C 415.320312 481.0625 416.453125 486.105469 417.710938 491.117188 C 418.96875 496.128906 420.347656 501.109375 421.847656 506.054688 C 423.351562 510.996094 424.972656 515.902344 426.714844 520.769531 C 428.457031 525.632812 430.320312 530.453125 432.296875 535.226562 C 434.277344 540 436.371094 544.722656 438.582031 549.394531 C 440.792969 554.066406 443.117188 558.679688 445.554688 563.238281 C 447.992188 567.792969 450.539062 572.289062 453.199219 576.71875 C 455.855469 581.152344 458.621094 585.515625 461.496094 589.8125 C 464.367188 594.109375 467.34375 598.332031 470.421875 602.480469 C 473.503906 606.632812 476.683594 610.703125 479.960938 614.699219 C 483.242188 618.691406 486.617188 622.601562 490.089844 626.429688 C 493.5625 630.257812 497.125 634 500.78125 637.652344 C 504.433594 641.308594 508.179688 644.867188 512.007812 648.335938 C 515.839844 651.808594 519.75 655.179688 523.746094 658.457031 C 527.742188 661.734375 531.816406 664.914062 535.96875 667.988281 C 540.121094 671.066406 544.34375 674.039062 548.644531 676.910156 C 552.941406 679.78125 557.304688 682.542969 561.738281 685.199219 C 566.171875 687.855469 570.667969 690.398438 575.226562 692.835938 C 579.785156 695.269531 584.402344 697.589844 589.074219 699.800781 C 593.746094 702.007812 598.46875 704.101562 603.246094 706.078125 C 608.019531 708.054688 612.839844 709.910156 617.707031 711.652344 C 622.574219 713.390625 627.480469 715.007812 632.425781 716.507812 C 637.371094 718.007812 642.351562 719.382812 647.363281 720.636719 C 652.378906 721.894531 657.417969 723.023438 662.488281 724.03125 C 667.558594 725.035156 672.648438 725.917969 677.761719 726.675781 C 682.871094 727.433594 688 728.0625 693.144531 728.570312 C 698.285156 729.074219 703.4375 729.453125 708.601562 729.703125 C 713.761719 729.957031 718.925781 730.082031 724.09375 730.082031 C 729.261719 730.078125 734.429688 729.953125 739.589844 729.695312 C 744.75 729.441406 749.902344 729.058594 755.046875 728.550781 C 760.1875 728.042969 765.316406 727.410156 770.429688 726.652344 C 775.539062 725.890625 780.628906 725.007812 785.699219 723.996094 C 790.765625 722.988281 795.808594 721.855469 800.820312 720.597656 C 805.832031 719.339844 810.8125 717.960938 815.757812 716.460938 C 820.703125 714.957031 825.609375 713.335938 830.472656 711.59375 C 835.339844 709.851562 840.15625 707.992188 844.933594 706.011719 C 849.707031 704.03125 854.429688 701.9375 859.101562 699.726562 C 863.769531 697.515625 868.386719 695.191406 872.941406 692.753906 C 877.5 690.316406 881.992188 687.769531 886.425781 685.113281 C 890.859375 682.453125 895.222656 679.6875 899.519531 676.816406 C 903.816406 673.945312 908.039062 670.96875 912.1875 667.890625 C 916.339844 664.808594 920.410156 661.628906 924.40625 658.351562 C 928.398438 655.070312 932.308594 651.695312 936.136719 648.222656 C 939.964844 644.753906 943.707031 641.1875 947.359375 637.535156 C 951.015625 633.878906 954.574219 630.136719 958.046875 626.304688 C 961.515625 622.476562 964.886719 618.5625 968.164062 614.566406 C 971.445312 610.570312 974.621094 606.496094 977.699219 602.347656 C 980.777344 598.195312 983.75 593.96875 986.621094 589.671875 C 989.488281 585.375 992.253906 581.007812 994.910156 576.574219 C 997.5625 572.140625 1000.109375 567.644531 1002.546875 563.085938 C 1004.980469 558.53125 1007.300781 553.914062 1009.511719 549.242188 C 1011.71875 544.570312 1013.8125 539.847656 1015.789062 535.070312 C 1017.765625 530.296875 1019.621094 525.476562 1021.363281 520.609375 C 1023.101562 515.742188 1024.722656 510.835938 1026.21875 505.890625 C 1027.71875 500.945312 1029.097656 495.964844 1030.351562 490.953125 C 1031.605469 485.9375 1032.734375 480.898438 1033.742188 475.828125 C 1034.75 470.757812 1035.632812 465.667969 1036.390625 460.558594 C 1037.144531 455.445312 1037.777344 450.316406 1038.28125 445.175781 C 1038.789062 440.03125 1039.167969 434.878906 1039.417969 429.714844 C 1039.671875 424.554688 1039.796875 419.390625 1039.796875 414.222656 C 1039.785156 409.054688 1039.648438 403.894531 1039.386719 398.734375 C 1039.121094 393.574219 1038.730469 388.425781 1038.214844 383.285156 C 1037.699219 378.144531 1037.058594 373.019531 1036.292969 367.914062 C 1035.523438 362.804688 1034.632812 357.71875 1033.617188 352.652344 C 1032.601562 347.585938 1031.460938 342.550781 1030.199219 337.542969 C 1028.9375 332.53125 1027.550781 327.558594 1026.046875 322.617188 C 1024.539062 317.675781 1022.914062 312.773438 1021.167969 307.910156 C 1019.417969 303.050781 1017.554688 298.234375 1015.574219 293.464844 C 1013.589844 288.691406 1011.492188 283.972656 1009.277344 279.304688 C 1007.066406 274.636719 1004.738281 270.027344 1002.296875 265.472656 C 999.859375 260.921875 997.308594 256.429688 994.648438 252 C 991.992188 247.574219 989.222656 243.210938 986.351562 238.917969 C 983.476562 234.625 980.5 230.40625 977.421875 226.257812 C 974.339844 222.109375 971.160156 218.039062 967.882812 214.050781 C 964.601562 210.058594 961.226562 206.148438 957.757812 202.324219 C 954.285156 198.496094 950.726562 194.757812 947.070312 191.105469 C 943.417969 187.453125 939.675781 183.894531 935.847656 180.425781 C 932.019531 176.957031 928.109375 173.582031 924.113281 170.308594 C 920.121094 167.03125 916.050781 163.851562 911.902344 160.773438 C 907.753906 157.699219 903.53125 154.722656 899.234375 151.851562 C 894.941406 148.980469 890.578125 146.21875 886.148438 143.5625 C 881.71875 140.90625 877.226562 138.359375 872.671875 135.921875 C 868.117188 133.484375 863.503906 131.160156 858.835938 128.949219 C 854.164062 126.738281 849.445312 124.644531 844.675781 122.664062 C 839.902344 120.683594 835.085938 118.820312 830.222656 117.078125 C 825.359375 115.332031 820.457031 113.710938 815.515625 112.207031 C 810.574219 110.703125 805.597656 109.320312 800.585938 108.0625 C 795.578125 106.800781 790.539062 105.664062 785.472656 104.652344 C 780.410156 103.636719 775.320312 102.75 770.210938 101.984375 C 765.105469 101.222656 759.980469 100.582031 754.839844 100.070312 C 749.699219 99.558594 744.546875 99.171875 739.390625 98.910156 C 734.230469 98.648438 729.066406 98.515625 723.902344 98.507812 Z M 811.105469 680.664062 C 797.40625 683.464844 792.355469 675.035156 792.355469 667.765625 C 792.355469 658.5 792.753906 629.070312 792.753906 592.40625 C 792.753906 566.972656 784.109375 550.332031 774.226562 541.867188 C 835.085938 535 899.144531 511.855469 899.144531 406.664062 C 899.195312 403.300781 899.089844 399.941406 898.820312 396.589844 C 898.550781 393.234375 898.121094 389.902344 897.535156 386.589844 C 896.949219 383.277344 896.203125 380.003906 895.304688 376.761719 C 894.40625 373.519531 893.351562 370.328125 892.148438 367.1875 C 890.941406 364.046875 889.589844 360.96875 888.09375 357.957031 C 886.59375 354.945312 884.957031 352.015625 883.175781 349.160156 C 881.398438 346.304688 879.488281 343.539062 877.445312 340.867188 C 875.402344 338.195312 873.238281 335.625 870.949219 333.160156 C 873.746094 326.292969 883.410156 298.277344 868.296875 260.488281 C 868.296875 260.488281 845.332031 253.003906 792.972656 288.46875 C 781.820312 285.464844 770.519531 283.207031 759.070312 281.691406 C 747.621094 280.175781 736.121094 279.421875 724.574219 279.421875 C 713.023438 279.421875 701.523438 280.175781 690.074219 281.691406 C 678.625 283.207031 667.324219 285.464844 656.171875 288.46875 C 603.8125 253.441406 580.8125 260.488281 580.8125 260.488281 C 565.917969 298.132812 575.402344 326.144531 578.199219 333.160156 C 575.925781 335.632812 573.777344 338.210938 571.746094 340.886719 C 569.71875 343.566406 567.824219 346.335938 566.058594 349.191406 C 564.292969 352.050781 562.667969 354.988281 561.179688 358 C 559.691406 361.011719 558.351562 364.085938 557.15625 367.226562 C 555.960938 370.367188 554.917969 373.554688 554.027344 376.796875 C 553.132812 380.035156 552.394531 383.308594 551.8125 386.617188 C 551.230469 389.925781 550.808594 393.253906 550.542969 396.601562 C 550.277344 399.953125 550.167969 403.304688 550.21875 406.664062 C 550.21875 511.417969 613.878906 535 674.703125 541.867188 C 666.855469 548.699219 659.589844 560.578125 657.191406 578.527344 C 641.457031 585.578125 602.179688 597.242188 577.617188 555.964844 C 572.382812 547.679688 557.050781 527.550781 535.503906 527.769531 C 512.542969 528.167969 526.238281 540.847656 535.722656 545.9375 C 547.386719 552.585938 560.683594 576.746094 563.917969 584.597656 C 569.332031 600.109375 587.0625 629.507812 655.773438 616.824219 C 655.773438 639.789062 656.171875 661.371094 656.171875 667.695312 C 656.171875 674.960938 651.160156 682.992188 637.425781 680.59375 C 632.347656 678.894531 627.328125 677.046875 622.363281 675.050781 C 617.394531 673.054688 612.492188 670.917969 607.652344 668.632812 C 602.808594 666.351562 598.039062 663.925781 593.34375 661.363281 C 588.644531 658.800781 584.023438 656.101562 579.484375 653.269531 C 574.945312 650.433594 570.492188 647.46875 566.125 644.371094 C 561.757812 641.277344 557.488281 638.054688 553.3125 634.707031 C 549.136719 631.359375 545.058594 627.894531 541.085938 624.308594 C 537.113281 620.722656 533.25 617.023438 529.492188 613.210938 C 525.738281 609.398438 522.097656 605.476562 518.570312 601.449219 C 515.046875 597.421875 511.640625 593.296875 508.359375 589.070312 C 505.074219 584.84375 501.917969 580.523438 498.890625 576.109375 C 495.859375 571.699219 492.964844 567.199219 490.199219 562.617188 C 487.433594 558.035156 484.804688 553.375 482.3125 548.640625 C 479.820312 543.902344 477.46875 539.097656 475.261719 534.222656 C 473.050781 529.347656 470.988281 524.410156 469.066406 519.414062 C 467.148438 514.417969 465.378906 509.371094 463.753906 504.269531 C 462.128906 499.171875 460.660156 494.027344 459.339844 488.839844 C 458.015625 483.65625 456.847656 478.433594 455.835938 473.179688 C 454.820312 467.921875 453.960938 462.644531 453.257812 457.335938 C 452.554688 452.03125 452.003906 446.710938 451.613281 441.371094 C 451.222656 436.035156 450.988281 430.691406 450.910156 425.339844 C 450.832031 419.988281 450.910156 414.636719 451.148438 409.289062 C 451.382812 403.945312 451.777344 398.609375 452.328125 393.285156 C 452.875 387.960938 453.582031 382.65625 454.445312 377.375 C 455.304688 372.09375 456.320312 366.839844 457.492188 361.617188 C 458.660156 356.394531 459.980469 351.210938 461.457031 346.066406 C 462.929688 340.921875 464.554688 335.824219 466.328125 330.773438 C 468.101562 325.722656 470.023438 320.730469 472.089844 315.792969 C 474.15625 310.855469 476.367188 305.984375 478.71875 301.175781 C 481.070312 296.371094 483.5625 291.636719 486.195312 286.976562 C 488.824219 282.3125 491.589844 277.734375 494.492188 273.238281 C 497.390625 268.738281 500.421875 264.328125 503.582031 260.007812 C 506.738281 255.6875 510.023438 251.464844 513.429688 247.335938 C 516.835938 243.207031 520.363281 239.183594 524.003906 235.265625 C 527.648438 231.34375 531.402344 227.53125 535.273438 223.832031 C 539.140625 220.132812 543.109375 216.550781 547.1875 213.082031 C 551.265625 209.617188 555.441406 206.273438 559.714844 203.050781 C 563.992188 199.828125 568.355469 196.734375 572.8125 193.769531 C 577.265625 190.804688 581.804688 187.972656 586.429688 185.277344 C 591.050781 182.578125 595.746094 180.015625 600.519531 177.59375 C 605.292969 175.171875 610.132812 172.890625 615.039062 170.753906 C 619.945312 168.613281 624.910156 166.621094 629.933594 164.773438 C 634.957031 162.929688 640.03125 161.230469 645.152344 159.683594 C 650.277344 158.132812 655.441406 156.734375 660.644531 155.492188 C 665.851562 154.246094 671.089844 153.152344 676.359375 152.214844 C 681.625 151.277344 686.917969 150.496094 692.234375 149.867188 C 697.550781 149.242188 702.878906 148.769531 708.222656 148.457031 C 713.566406 148.140625 718.910156 147.984375 724.265625 147.984375 C 729.617188 147.984375 734.964844 148.140625 740.308594 148.457031 C 745.648438 148.769531 750.980469 149.242188 756.292969 149.867188 C 761.609375 150.496094 766.902344 151.277344 772.171875 152.214844 C 777.441406 153.152344 782.675781 154.246094 787.882812 155.492188 C 793.089844 156.734375 798.253906 158.132812 803.375 159.683594 C 808.5 161.230469 813.570312 162.929688 818.59375 164.773438 C 823.617188 166.621094 828.582031 168.613281 833.488281 170.753906 C 838.398438 172.890625 843.234375 175.171875 848.007812 177.59375 C 852.78125 180.015625 857.476562 182.578125 862.101562 185.277344 C 866.722656 187.972656 871.261719 190.804688 875.71875 193.769531 C 880.171875 196.734375 884.539062 199.828125 888.8125 203.050781 C 893.085938 206.273438 897.261719 209.617188 901.339844 213.082031 C 905.417969 216.550781 909.390625 220.132812 913.257812 223.832031 C 917.125 227.53125 920.878906 231.34375 924.523438 235.265625 C 928.167969 239.183594 931.691406 243.207031 935.097656 247.335938 C 938.507812 251.464844 941.789062 255.6875 944.949219 260.007812 C 948.105469 264.328125 951.136719 268.738281 954.035156 273.238281 C 956.9375 277.734375 959.703125 282.3125 962.332031 286.976562 C 964.964844 291.636719 967.457031 296.371094 969.808594 301.175781 C 972.164062 305.984375 974.371094 310.855469 976.4375 315.792969 C 978.507812 320.730469 980.425781 325.722656 982.199219 330.773438 C 983.972656 335.824219 985.597656 340.921875 987.070312 346.066406 C 988.546875 351.210938 989.867188 356.394531 991.039062 361.617188 C 992.207031 366.839844 993.222656 372.09375 994.085938 377.375 C 994.945312 382.65625 995.652344 387.960938 996.203125 393.285156 C 996.75 398.609375 997.144531 403.945312 997.378906 409.289062 C 997.617188 414.636719 997.695312 419.988281 997.617188 425.339844 C 997.542969 430.691406 997.304688 436.035156 996.914062 441.371094 C 996.523438 446.710938 995.976562 452.03125 995.269531 457.335938 C 994.566406 462.644531 993.707031 467.921875 992.695312 473.179688 C 991.679688 478.433594 990.511719 483.65625 989.191406 488.839844 C 987.871094 494.027344 986.398438 499.171875 984.773438 504.269531 C 983.152344 509.371094 981.378906 514.417969 979.460938 519.414062 C 977.542969 524.410156 975.476562 529.347656 973.265625 534.222656 C 971.058594 539.097656 968.707031 543.902344 966.214844 548.640625 C 963.722656 553.375 961.097656 558.035156 958.332031 562.617188 C 955.566406 567.199219 952.667969 571.699219 949.636719 576.109375 C 946.609375 580.523438 943.453125 584.84375 940.167969 589.070312 C 936.886719 593.296875 933.480469 597.421875 929.957031 601.449219 C 926.429688 605.476562 922.789062 609.398438 919.035156 613.210938 C 915.277344 617.023438 911.414062 620.722656 907.441406 624.308594 C 903.46875 627.894531 899.394531 631.359375 895.214844 634.707031 C 891.039062 638.054688 886.769531 641.277344 882.402344 644.371094 C 878.039062 647.46875 873.585938 650.433594 869.042969 653.269531 C 864.503906 656.101562 859.886719 658.800781 855.1875 661.363281 C 850.488281 663.925781 845.71875 666.351562 840.878906 668.632812 C 836.035156 670.917969 831.132812 673.054688 826.167969 675.050781 C 821.199219 677.046875 816.179688 678.894531 811.105469 680.59375 Z M 811.105469 680.664062 " fill-opacity="1" fill-rule="evenodd"/></g><g clip-path="url(#7836eb72e3)"><path fill="#524781" d="M 877.753906 711.0625 C 877.148438 711.0625 876.546875 711.089844 875.949219 711.148438 C 875.347656 711.207031 874.753906 711.296875 874.164062 711.414062 C 873.570312 711.53125 872.988281 711.679688 872.410156 711.851562 C 871.835938 712.027344 871.269531 712.230469 870.710938 712.460938 C 870.15625 712.691406 869.609375 712.949219 869.078125 713.234375 C 868.546875 713.515625 868.03125 713.828125 867.53125 714.160156 C 867.03125 714.496094 866.546875 714.855469 866.082031 715.238281 C 865.613281 715.617188 865.167969 716.023438 864.742188 716.449219 C 864.316406 716.875 863.914062 717.320312 863.53125 717.785156 C 863.148438 718.253906 862.789062 718.734375 862.453125 719.238281 C 862.121094 719.738281 861.8125 720.253906 861.527344 720.785156 C 861.242188 721.316406 860.984375 721.863281 860.753906 722.417969 C 860.523438 722.976562 860.320312 723.542969 860.144531 724.117188 C 859.972656 724.695312 859.824219 725.277344 859.707031 725.871094 C 859.589844 726.460938 859.5 727.054688 859.441406 727.65625 C 859.382812 728.253906 859.355469 728.855469 859.355469 729.457031 C 859.355469 730.0625 859.382812 730.664062 859.441406 731.261719 C 859.5 731.863281 859.589844 732.457031 859.707031 733.046875 C 859.824219 733.640625 859.972656 734.222656 860.144531 734.800781 C 860.320312 735.375 860.523438 735.941406 860.753906 736.5 C 860.984375 737.054688 861.242188 737.601562 861.527344 738.132812 C 861.8125 738.664062 862.121094 739.179688 862.453125 739.679688 C 862.789062 740.179688 863.148438 740.664062 863.53125 741.128906 C 863.914062 741.597656 864.316406 742.042969 864.742188 742.46875 C 865.167969 742.894531 865.613281 743.296875 866.082031 743.679688 C 866.546875 744.0625 867.03125 744.421875 867.53125 744.757812 C 868.03125 745.089844 868.546875 745.402344 869.078125 745.683594 C 869.609375 745.96875 870.15625 746.226562 870.710938 746.457031 C 871.269531 746.6875 871.835938 746.890625 872.410156 747.066406 C 872.988281 747.238281 873.570312 747.386719 874.164062 747.503906 C 874.753906 747.621094 875.347656 747.710938 875.949219 747.769531 C 876.546875 747.828125 877.148438 747.855469 877.753906 747.855469 C 878.355469 747.855469 878.957031 747.828125 879.554688 747.769531 C 880.15625 747.710938 880.75 747.621094 881.339844 747.503906 C 881.933594 747.386719 882.515625 747.238281 883.09375 747.066406 C 883.667969 746.890625 884.238281 746.6875 884.792969 746.457031 C 885.351562 746.226562 885.894531 745.96875 886.425781 745.683594 C 886.957031 745.402344 887.472656 745.089844 887.972656 744.757812 C 888.476562 744.421875 888.957031 744.0625 889.425781 743.679688 C 889.890625 743.296875 890.335938 742.894531 890.761719 742.46875 C 891.1875 742.042969 891.59375 741.597656 891.972656 741.128906 C 892.355469 740.664062 892.714844 740.179688 893.050781 739.679688 C 893.386719 739.179688 893.695312 738.664062 893.976562 738.132812 C 894.261719 737.601562 894.519531 737.054688 894.75 736.5 C 894.980469 735.941406 895.183594 735.375 895.359375 734.800781 C 895.535156 734.222656 895.679688 733.640625 895.796875 733.046875 C 895.914062 732.457031 896.003906 731.863281 896.0625 731.261719 C 896.121094 730.664062 896.152344 730.0625 896.152344 729.457031 C 896.152344 728.855469 896.121094 728.253906 896.0625 727.65625 C 896.003906 727.054688 895.914062 726.460938 895.796875 725.871094 C 895.679688 725.277344 895.535156 724.695312 895.359375 724.117188 C 895.183594 723.542969 894.980469 722.976562 894.75 722.417969 C 894.519531 721.863281 894.261719 721.316406 893.976562 720.785156 C 893.695312 720.253906 893.382812 719.738281 893.050781 719.238281 C 892.714844 718.734375 892.355469 718.253906 891.972656 717.785156 C 891.59375 717.320312 891.1875 716.875 890.761719 716.449219 C 890.335938 716.023438 889.890625 715.617188 889.425781 715.238281 C 888.957031 714.855469 888.476562 714.496094 887.972656 714.160156 C 887.472656 713.828125 886.957031 713.515625 886.425781 713.234375 C 885.894531 712.949219 885.351562 712.691406 884.792969 712.460938 C 884.238281 712.230469 883.667969 712.027344 883.09375 711.851562 C 882.515625 711.679688 881.933594 711.53125 881.339844 711.414062 C 880.75 711.296875 880.15625 711.207031 879.554688 711.148438 C 878.957031 711.089844 878.355469 711.0625 877.753906 711.0625 Z M 867.089844 720.300781 L 888.414062 720.300781 C 888.929688 720.304688 889.410156 720.433594 889.859375 720.691406 L 878.609375 728.519531 C 878.355469 728.695312 878.070312 728.785156 877.757812 728.785156 C 877.449219 728.785156 877.164062 728.695312 876.90625 728.519531 L 865.648438 720.691406 C 866.09375 720.433594 866.574219 720.304688 867.089844 720.300781 Z M 888.414062 738.617188 L 867.089844 738.617188 C 866.695312 738.617188 866.316406 738.539062 865.949219 738.386719 C 865.585938 738.238281 865.261719 738.023438 864.984375 737.742188 C 864.703125 737.460938 864.488281 737.140625 864.335938 736.773438 C 864.183594 736.410156 864.109375 736.03125 864.109375 735.632812 L 864.109375 723.285156 C 864.109375 722.730469 864.257812 722.214844 864.550781 721.742188 L 876.054688 729.742188 C 876.570312 730.097656 877.136719 730.273438 877.757812 730.273438 C 878.382812 730.273438 878.949219 730.097656 879.464844 729.742188 L 890.957031 721.742188 C 891.246094 722.214844 891.394531 722.730469 891.398438 723.285156 L 891.398438 735.632812 C 891.398438 736.03125 891.320312 736.410156 891.167969 736.773438 C 891.019531 737.140625 890.800781 737.460938 890.523438 737.742188 C 890.242188 738.023438 889.921875 738.238281 889.554688 738.390625 C 889.191406 738.539062 888.808594 738.617188 888.414062 738.617188 Z M 888.414062 738.617188 " fill-opacity="1" fill-rule="nonzero"/></g></svg>