<svg xmlns="http://www.w3.org/2000/svg" xmlns:xlink="http://www.w3.org/1999/xlink" width="1920" zoomAndPan="magnify" viewBox="0 0 1440 809.999993" height="1080" preserveAspectRatio="xMidYMid meet" version="1.0"><defs><filter x="0%" y="0%" width="100%" height="100%" id="f1396beff7"><feColorMatrix values="0 0 0 0 1 0 0 0 0 1 0 0 0 0 1 0 0 0 1 0" color-interpolation-filters="sRGB"/></filter><clipPath id="81cb155c9e"><path d="M 417.949219 81 L 1065.949219 81 L 1065.949219 729 L 417.949219 729 Z M 417.949219 81 " clip-rule="nonzero"/></clipPath><clipPath id="d8f1d6b882"><path d="M 1298.261719 38.644531 L 1307.261719 38.644531 L 1307.261719 46.144531 L 1298.261719 46.144531 Z M 1298.261719 38.644531 " clip-rule="nonzero"/></clipPath><mask id="d56822e7bf"><g filter="url(#f1396beff7)"><rect x="-144" width="1728" fill="#000000" y="-80.999999" height="971.999992" fill-opacity="0.098"/></g></mask><clipPath id="d282f64570"><path d="M 0 0.679688 L 476.25 0.679688 L 476.25 137 L 0 137 Z M 0 0.679688 " clip-rule="nonzero"/></clipPath><clipPath id="2af63cf88e"><path d="M 0 139 L 436 139 L 436 167 L 0 167 Z M 0 139 " clip-rule="nonzero"/></clipPath><clipPath id="ec71723780"><path d="M 0 115 L 160 115 L 160 167 L 0 167 Z M 0 115 " clip-rule="nonzero"/></clipPath><clipPath id="4da371eff2"><path d="M 0 150 L 133 150 L 133 167 L 0 167 Z M 0 150 " clip-rule="nonzero"/></clipPath><clipPath id="e39ed3063f"><rect x="0" width="478" y="0" height="167"/></clipPath></defs><g clip-path="url(#81cb155c9e)"><path fill="#9a9aa2" d="M 741.949219 81 C 563.011719 81 417.949219 226.058594 417.949219 405 C 417.949219 583.941406 563.011719 729 741.949219 729 C 920.890625 729 1065.949219 583.941406 1065.949219 405 C 1065.949219 226.058594 920.890625 81 741.949219 81 Z M 930.351562 414.15625 C 921.117188 423.394531 907.488281 425.539062 896.199219 420.617188 L 896.199219 543.507812 C 896.199219 569.0625 875.480469 589.78125 849.925781 589.78125 L 633.976562 589.78125 C 608.421875 589.78125 587.703125 569.0625 587.703125 543.507812 L 587.703125 420.617188 C 576.417969 425.542969 562.785156 423.394531 553.550781 414.15625 C 541.503906 402.109375 541.503906 382.578125 553.550781 370.53125 L 720.136719 203.941406 C 732.183594 191.894531 751.714844 191.894531 763.765625 203.941406 L 930.351562 370.53125 C 942.402344 382.578125 942.402344 402.109375 930.351562 414.15625 Z M 930.351562 414.15625 " fill-opacity="1" fill-rule="nonzero"/></g><path fill="#9a9aa2" d="M 780.511719 420.109375 L 703.390625 420.109375 C 694.871094 420.109375 687.964844 427.015625 687.964844 435.535156 L 687.964844 528.082031 C 687.964844 536.601562 694.871094 543.507812 703.390625 543.507812 L 780.511719 543.507812 C 789.03125 543.507812 795.9375 536.601562 795.9375 528.082031 L 795.9375 435.535156 C 795.9375 427.015625 789.03125 420.109375 780.511719 420.109375 Z M 780.511719 420.109375 " fill-opacity="1" fill-rule="nonzero"/><g clip-path="url(#d8f1d6b882)"><path fill="#9a9aa2" d="M 1307.261719 38.644531 L 1298.265625 38.644531 L 1302.761719 46.144531 Z M 1307.261719 38.644531 " fill-opacity="1" fill-rule="nonzero"/></g><g mask="url(#d56822e7bf)"><g transform="matrix(1, 0, 0, 1, 0, 643)"><g clip-path="url(#e39ed3063f)"><g clip-path="url(#d282f64570)"><path fill="#e399ee" d="M 467.734375 103.28125 C 471.378906 103.28125 474.34375 100.316406 474.34375 96.664062 C 474.34375 93.019531 471.378906 90.050781 467.734375 90.050781 C 464.085938 90.050781 461.125 93.019531 461.125 96.664062 C 461.125 100.316406 464.085938 103.28125 467.734375 103.28125 Z M 459.34375 98.695312 L 300.230469 98.695312 L 262.925781 136.039062 L 215.828125 136.039062 L 167.164062 87.328125 L 21.957031 87.328125 L -50.289062 15.011719 C -53.199219 16.664062 -56.957031 16.257812 -59.433594 13.777344 C -62.414062 10.796875 -62.414062 5.964844 -59.433594 2.988281 C -56.460938 0.0078125 -51.632812 0.0078125 -48.65625 2.988281 C -46.175781 5.46875 -45.769531 9.230469 -47.421875 12.140625 L 23.636719 83.269531 L 168.84375 83.269531 L 217.507812 131.980469 L 261.246094 131.980469 L 298.554688 94.636719 L 459.34375 94.636719 C 460.261719 90.847656 463.667969 88.019531 467.734375 88.019531 C 472.496094 88.019531 476.371094 91.898438 476.371094 96.664062 C 476.371094 101.433594 472.496094 105.3125 467.734375 105.3125 C 463.667969 105.3125 460.261719 102.484375 459.34375 98.695312 " fill-opacity="1" fill-rule="nonzero"/></g><g clip-path="url(#2af63cf88e)"><path fill="#e399ee" d="M -93.460938 329.546875 C -90.886719 326.96875 -90.886719 322.773438 -93.460938 320.191406 C -96.039062 317.609375 -100.230469 317.609375 -102.808594 320.191406 C -105.386719 322.773438 -105.386719 326.96875 -102.808594 329.546875 C -100.230469 332.128906 -96.039062 332.128906 -93.460938 329.546875 Z M -93.636719 317.5 L -33.65625 257.457031 L 105.980469 257.457031 L 183.386719 179.976562 L 289.535156 179.976562 L 324.507812 144.96875 L 420.042969 144.96875 C 420.933594 141.742188 423.882812 139.371094 427.386719 139.371094 C 431.59375 139.371094 435.011719 142.785156 435.011719 147 C 435.011719 151.214844 431.59375 154.628906 427.386719 154.628906 C 423.882812 154.628906 420.933594 152.257812 420.042969 149.03125 L 326.183594 149.03125 L 291.214844 184.035156 L 185.066406 184.035156 L 107.65625 261.515625 L -31.976562 261.515625 L -90.769531 320.371094 C -88.742188 323.695312 -89.15625 328.105469 -92.027344 330.984375 C -95.394531 334.355469 -100.875 334.355469 -104.242188 330.984375 C -107.609375 327.613281 -107.609375 322.128906 -104.242188 318.757812 C -101.367188 315.882812 -96.960938 315.464844 -93.636719 317.5 " fill-opacity="1" fill-rule="nonzero"/></g><g clip-path="url(#ec71723780)"><path fill="#e399ee" d="M -160.753906 183.839844 C -157.105469 183.839844 -154.144531 180.871094 -154.144531 177.226562 C -154.144531 173.574219 -157.105469 170.605469 -160.753906 170.605469 C -164.394531 170.605469 -167.359375 173.574219 -167.359375 177.226562 C -167.359375 180.871094 -164.394531 183.839844 -160.753906 183.839844 Z M -169.386719 177.226562 C -169.386719 172.457031 -165.515625 168.578125 -160.753906 168.578125 C -156.6875 168.578125 -153.28125 171.40625 -152.363281 175.195312 L -78.96875 175.195312 L -24.445312 120.617188 L 144.25 120.617188 C 145.136719 117.386719 148.082031 115.015625 151.589844 115.015625 C 155.800781 115.015625 159.210938 118.429688 159.210938 122.644531 C 159.210938 126.859375 155.800781 130.273438 151.589844 130.273438 C 148.082031 130.273438 145.136719 127.902344 144.25 124.675781 L -22.765625 124.675781 L -77.289062 179.253906 L -152.363281 179.253906 C -153.28125 183.042969 -156.6875 185.871094 -160.753906 185.871094 C -165.515625 185.871094 -169.386719 181.992188 -169.386719 177.226562 " fill-opacity="1" fill-rule="nonzero"/></g><g clip-path="url(#4da371eff2)"><path fill="#e399ee" d="M 117.074219 159.179688 C 117.074219 162.828125 120.035156 165.792969 123.683594 165.792969 C 127.324219 165.792969 130.289062 162.828125 130.289062 159.179688 C 130.289062 155.53125 127.324219 152.5625 123.683594 152.5625 C 120.035156 152.5625 117.074219 155.53125 117.074219 159.179688 Z M -21.664062 200.8125 L 21.957031 157.148438 L 115.292969 157.148438 C 116.210938 153.359375 119.617188 150.53125 123.683594 150.53125 C 128.445312 150.53125 132.320312 154.410156 132.320312 159.179688 C 132.320312 163.945312 128.445312 167.824219 123.683594 167.824219 C 119.617188 167.824219 116.210938 164.996094 115.292969 161.207031 L 23.636719 161.207031 L -11.875 196.753906 L 59.601562 196.753906 L 79.070312 216.242188 C 81.980469 214.589844 85.742188 215 88.21875 217.476562 C 91.195312 220.460938 91.195312 225.292969 88.21875 228.269531 C 85.242188 231.25 80.414062 231.25 77.441406 228.269531 C 74.960938 225.789062 74.554688 222.023438 76.203125 219.109375 L 57.921875 200.8125 L -21.664062 200.8125 " fill-opacity="1" fill-rule="nonzero"/></g></g></g></g></svg>