<svg xmlns="http://www.w3.org/2000/svg" xmlns:xlink="http://www.w3.org/1999/xlink" width="1920" zoomAndPan="magnify" viewBox="0 0 1440 809.999993" height="1080" preserveAspectRatio="xMidYMid meet" version="1.0"><defs><clipPath id="23bf724b1d"><path d="M 1298.261719 38.644531 L 1307.261719 38.644531 L 1307.261719 46.144531 L 1298.261719 46.144531 Z M 1298.261719 38.644531 " clip-rule="nonzero"/></clipPath><clipPath id="5ce1b496b1"><path d="M 396 81 L 1044 81 L 1044 729 L 396 729 Z M 396 81 " clip-rule="nonzero"/></clipPath><clipPath id="9786f3296f"><path d="M 720 81 C 541.058594 81 396 226.058594 396 405 C 396 583.941406 541.058594 729 720 729 C 898.941406 729 1044 583.941406 1044 405 C 1044 226.058594 898.941406 81 720 81 " clip-rule="nonzero"/></clipPath><clipPath id="7a8d323ef2"><path d="M 452.109375 137.109375 L 987.890625 137.109375 L 987.890625 672.890625 L 452.109375 672.890625 Z M 452.109375 137.109375 " clip-rule="nonzero"/></clipPath></defs><g clip-path="url(#23bf724b1d)"><path fill="#9a9aa2" d="M 1307.261719 38.644531 L 1298.265625 38.644531 L 1302.761719 46.144531 Z M 1307.261719 38.644531 " fill-opacity="1" fill-rule="nonzero"/></g><g clip-path="url(#5ce1b496b1)"><g clip-path="url(#9786f3296f)"><path fill="#9a9aa2" d="M 396 81 L 1044 81 L 1044 729 L 396 729 Z M 396 81 " fill-opacity="1" fill-rule="nonzero"/></g></g><path fill="#ffffff" d="M 687.078125 544.03125 C 687.078125 524.566406 701.015625 510.496094 719.988281 510.496094 C 740.066406 510.496094 752.898438 524.566406 752.898438 544.03125 C 752.898438 562.964844 740.066406 577.566406 719.988281 577.566406 C 700.464844 577.566406 687.078125 562.964844 687.078125 544.03125 Z M 698.539062 462.527344 L 683.046875 270.027344 C 682.273438 260.398438 699.1875 252.546875 719.988281 252.546875 C 740.800781 252.546875 757.699219 260.445312 756.929688 270.027344 L 741.4375 462.527344 C 740.910156 469.0625 731.496094 474.214844 719.988281 474.214844 C 708.503906 474.214844 699.066406 469.0625 698.539062 462.527344 Z M 698.539062 462.527344 " fill-opacity="1" fill-rule="nonzero"/><g clip-path="url(#7a8d323ef2)"><path fill="#ffffff" d="M 719.988281 672.863281 C 572.277344 672.863281 452.109375 552.695312 452.109375 404.988281 C 452.109375 257.277344 572.277344 137.109375 719.988281 137.109375 C 867.695312 137.109375 987.863281 257.277344 987.863281 404.988281 C 987.863281 552.695312 867.695312 672.863281 719.988281 672.863281 Z M 719.988281 182.78125 C 597.460938 182.78125 497.78125 282.460938 497.78125 404.988281 C 497.78125 527.515625 597.460938 627.195312 719.988281 627.195312 C 842.515625 627.195312 942.195312 527.515625 942.195312 404.988281 C 942.195312 282.460938 842.515625 182.78125 719.988281 182.78125 Z M 719.988281 182.78125 " fill-opacity="1" fill-rule="nonzero"/></g></svg>