<svg xmlns="http://www.w3.org/2000/svg" xmlns:xlink="http://www.w3.org/1999/xlink" width="1920" zoomAndPan="magnify" viewBox="0 0 1440 809.999993" height="1080" preserveAspectRatio="xMidYMid meet" version="1.0"><defs><clipPath id="54c292f42b"><path d="M 450.878906 99 L 1065 99 L 1065 710.832031 L 450.878906 710.832031 Z M 450.878906 99 " clip-rule="nonzero"/></clipPath></defs><g clip-path="url(#54c292f42b)"><path fill="#524781" d="M 758.136719 99.042969 C 588.414062 99.042969 450.878906 236.574219 450.878906 406.292969 C 450.878906 558.722656 562.078125 685.347656 707.59375 709.289062 L 707.59375 500.996094 L 629.382812 500.996094 L 629.382812 409.753906 L 707.59375 409.753906 L 707.59375 343.511719 C 707.59375 271.6875 765.851562 223.007812 837.679688 223.007812 C 869.601562 223.007812 889.554688 227.796875 889.554688 227.796875 L 889.554688 304.410156 L 837.679688 304.410156 C 816.132812 304.410156 798.574219 321.964844 798.574219 343.511719 L 798.574219 409.753906 L 882.371094 409.753906 L 870.667969 500.996094 L 798.574219 500.996094 L 798.574219 710.621094 C 948.878906 690.667969 1064.863281 561.914062 1064.863281 406.292969 C 1065.128906 236.574219 927.59375 99.042969 758.136719 99.042969 Z M 758.136719 99.042969 " fill-opacity="1" fill-rule="nonzero"/></g></svg>