<svg xmlns="http://www.w3.org/2000/svg" xmlns:xlink="http://www.w3.org/1999/xlink" width="1920" zoomAndPan="magnify" viewBox="0 0 1440 809.999993" height="1080" preserveAspectRatio="xMidYMid meet" version="1.0"><defs><clipPath id="e3371b09b4"><path d="M 417.949219 81 L 1065.949219 81 L 1065.949219 729 L 417.949219 729 Z M 417.949219 81 " clip-rule="nonzero"/></clipPath><clipPath id="23a4dcd1b1"><path d="M 1298.261719 38.644531 L 1307.261719 38.644531 L 1307.261719 46.144531 L 1298.261719 46.144531 Z M 1298.261719 38.644531 " clip-rule="nonzero"/></clipPath></defs><g clip-path="url(#e3371b09b4)"><path fill="#9a9aa2" d="M 741.949219 81 C 563.011719 81 417.949219 226.058594 417.949219 405 C 417.949219 583.941406 563.011719 729 741.949219 729 C 920.890625 729 1065.949219 583.941406 1065.949219 405 C 1065.949219 226.058594 920.890625 81 741.949219 81 Z M 930.351562 414.15625 C 921.117188 423.394531 907.488281 425.539062 896.199219 420.617188 L 896.199219 543.507812 C 896.199219 569.0625 875.480469 589.78125 849.925781 589.78125 L 633.976562 589.78125 C 608.421875 589.78125 587.703125 569.0625 587.703125 543.507812 L 587.703125 420.617188 C 576.417969 425.542969 562.785156 423.394531 553.550781 414.15625 C 541.503906 402.109375 541.503906 382.578125 553.550781 370.53125 L 720.136719 203.941406 C 732.183594 191.894531 751.714844 191.894531 763.765625 203.941406 L 930.351562 370.53125 C 942.402344 382.578125 942.402344 402.109375 930.351562 414.15625 Z M 930.351562 414.15625 " fill-opacity="1" fill-rule="nonzero"/></g><path fill="#9a9aa2" d="M 780.511719 420.109375 L 703.390625 420.109375 C 694.871094 420.109375 687.964844 427.015625 687.964844 435.535156 L 687.964844 528.082031 C 687.964844 536.601562 694.871094 543.507812 703.390625 543.507812 L 780.511719 543.507812 C 789.03125 543.507812 795.9375 536.601562 795.9375 528.082031 L 795.9375 435.535156 C 795.9375 427.015625 789.03125 420.109375 780.511719 420.109375 Z M 780.511719 420.109375 " fill-opacity="1" fill-rule="nonzero"/><g clip-path="url(#23a4dcd1b1)"><path fill="#9a9aa2" d="M 1307.261719 38.644531 L 1298.265625 38.644531 L 1302.761719 46.144531 Z M 1307.261719 38.644531 " fill-opacity="1" fill-rule="nonzero"/></g></svg>