<svg xmlns="http://www.w3.org/2000/svg" xmlns:xlink="http://www.w3.org/1999/xlink" width="1920" zoomAndPan="magnify" viewBox="0 0 1440 809.999993" height="1080" preserveAspectRatio="xMidYMid meet" version="1.0"><defs><clipPath id="1caf9afd53"><path d="M 407.191406 81 L 1055.847656 81 L 1055.847656 729.65625 L 407.191406 729.65625 Z M 407.191406 81 " clip-rule="nonzero"/></clipPath><clipPath id="8424f72ea8"><path d="M 550.324219 216.710938 L 909.402344 216.710938 L 909.402344 650.621094 L 550.324219 650.621094 Z M 550.324219 216.710938 " clip-rule="nonzero"/></clipPath><clipPath id="fca7c5aa32"><path d="M 608 158.503906 L 847 158.503906 L 847 264 L 608 264 Z M 608 158.503906 " clip-rule="nonzero"/></clipPath><clipPath id="9d2eb10db6"><path d="M 1298.261719 38.644531 L 1307.261719 38.644531 L 1307.261719 46.144531 L 1298.261719 46.144531 Z M 1298.261719 38.644531 " clip-rule="nonzero"/></clipPath></defs><g clip-path="url(#1caf9afd53)"><path fill="#9a9aa2" d="M 1055.847656 405.328125 C 1055.847656 410.636719 1055.714844 415.941406 1055.457031 421.242188 C 1055.195312 426.542969 1054.804688 431.835938 1054.285156 437.117188 C 1053.765625 442.398438 1053.113281 447.667969 1052.335938 452.917969 C 1051.558594 458.167969 1050.648438 463.394531 1049.613281 468.601562 C 1048.578125 473.808594 1047.414062 478.984375 1046.125 484.132812 C 1044.835938 489.28125 1043.421875 494.394531 1041.878906 499.476562 C 1040.339844 504.554688 1038.675781 509.59375 1036.886719 514.589844 C 1035.097656 519.589844 1033.1875 524.539062 1031.15625 529.441406 C 1029.125 534.347656 1026.976562 539.199219 1024.707031 543.996094 C 1022.4375 548.792969 1020.050781 553.535156 1017.550781 558.214844 C 1015.046875 562.898438 1012.433594 567.511719 1009.703125 572.066406 C 1006.972656 576.617188 1004.136719 581.101562 1001.1875 585.515625 C 998.238281 589.929688 995.183594 594.265625 992.019531 598.53125 C 988.859375 602.792969 985.59375 606.976562 982.226562 611.078125 C 978.859375 615.183594 975.394531 619.199219 971.828125 623.132812 C 968.265625 627.066406 964.605469 630.910156 960.851562 634.664062 C 957.097656 638.417969 953.257812 642.074219 949.324219 645.640625 C 945.390625 649.203125 941.371094 652.671875 937.269531 656.039062 C 933.167969 659.40625 928.984375 662.667969 924.71875 665.832031 C 920.457031 668.992188 916.117188 672.046875 911.703125 674.996094 C 907.292969 677.945312 902.808594 680.785156 898.253906 683.515625 C 893.703125 686.242188 889.085938 688.859375 884.40625 691.359375 C 879.722656 693.863281 874.984375 696.246094 870.1875 698.515625 C 865.386719 700.785156 860.535156 702.9375 855.632812 704.96875 C 850.730469 707 845.777344 708.910156 840.78125 710.699219 C 835.78125 712.484375 830.746094 714.148438 825.664062 715.691406 C 820.585938 717.230469 815.472656 718.648438 810.324219 719.9375 C 805.175781 721.226562 799.996094 722.390625 794.792969 723.425781 C 789.585938 724.460938 784.355469 725.367188 779.105469 726.144531 C 773.855469 726.925781 768.589844 727.574219 763.308594 728.09375 C 758.023438 728.613281 752.734375 729.003906 747.433594 729.265625 C 742.128906 729.527344 736.824219 729.65625 731.519531 729.65625 C 726.210938 729.65625 720.90625 729.527344 715.605469 729.265625 C 710.300781 729.003906 705.011719 728.613281 699.726562 728.09375 C 694.445312 727.574219 689.179688 726.925781 683.929688 726.144531 C 678.679688 725.367188 673.449219 724.460938 668.246094 723.425781 C 663.039062 722.390625 657.859375 721.226562 652.710938 719.9375 C 647.5625 718.648438 642.449219 717.230469 637.371094 715.691406 C 632.289062 714.148438 627.253906 712.484375 622.253906 710.699219 C 617.257812 708.910156 612.304688 707 607.402344 704.96875 C 602.5 702.9375 597.648438 700.785156 592.851562 698.515625 C 588.050781 696.246094 583.3125 693.863281 578.628906 691.359375 C 573.949219 688.859375 569.332031 686.242188 564.78125 683.515625 C 560.226562 680.785156 555.742188 677.945312 551.332031 674.996094 C 546.917969 672.046875 542.578125 668.992188 538.316406 665.832031 C 534.050781 662.667969 529.871094 659.40625 525.765625 656.039062 C 521.664062 652.671875 517.644531 649.203125 513.710938 645.640625 C 509.78125 642.074219 505.9375 638.417969 502.183594 634.664062 C 498.429688 630.910156 494.769531 627.066406 491.207031 623.132812 C 487.640625 619.199219 484.175781 615.183594 480.808594 611.078125 C 477.441406 606.976562 474.175781 602.792969 471.015625 598.53125 C 467.851562 594.265625 464.796875 589.929688 461.847656 585.515625 C 458.898438 581.101562 456.0625 576.617188 453.332031 572.066406 C 450.601562 567.511719 447.988281 562.898438 445.484375 558.214844 C 442.984375 553.535156 440.597656 548.792969 438.328125 543.996094 C 436.058594 539.199219 433.910156 534.347656 431.878906 529.441406 C 429.847656 524.539062 427.9375 519.589844 426.148438 514.589844 C 424.359375 509.59375 422.695312 504.554688 421.15625 499.476562 C 419.613281 494.394531 418.199219 489.28125 416.910156 484.132812 C 415.621094 478.984375 414.457031 473.808594 413.421875 468.601562 C 412.386719 463.394531 411.480469 458.167969 410.699219 452.917969 C 409.921875 447.667969 409.273438 442.398438 408.75 437.117188 C 408.230469 431.835938 407.839844 426.542969 407.582031 421.242188 C 407.320312 415.941406 407.191406 410.636719 407.191406 405.328125 C 407.191406 400.019531 407.320312 394.714844 407.582031 389.414062 C 407.839844 384.113281 408.230469 378.820312 408.75 373.539062 C 409.273438 368.257812 409.921875 362.988281 410.699219 357.738281 C 411.480469 352.488281 412.386719 347.261719 413.421875 342.054688 C 414.457031 336.847656 415.621094 331.671875 416.910156 326.523438 C 418.199219 321.375 419.613281 316.261719 421.15625 311.179688 C 422.695312 306.101562 424.359375 301.0625 426.148438 296.066406 C 427.9375 291.066406 429.847656 286.117188 431.878906 281.214844 C 433.910156 276.308594 436.058594 271.457031 438.328125 266.660156 C 440.597656 261.863281 442.984375 257.121094 445.484375 252.441406 C 447.988281 247.761719 450.601562 243.144531 453.332031 238.589844 C 456.0625 234.039062 458.898438 229.554688 461.847656 225.140625 C 464.796875 220.726562 467.851562 216.390625 471.015625 212.125 C 474.175781 207.863281 477.441406 203.679688 480.808594 199.578125 C 484.175781 195.472656 487.640625 191.457031 491.207031 187.523438 C 494.769531 183.589844 498.429688 179.746094 502.183594 175.992188 C 505.9375 172.242188 509.78125 168.582031 513.710938 165.015625 C 517.644531 161.453125 521.664062 157.988281 525.765625 154.621094 C 529.871094 151.25 534.050781 147.988281 538.316406 144.824219 C 542.578125 141.664062 546.917969 138.609375 551.332031 135.660156 C 555.742188 132.710938 560.226562 129.871094 564.78125 127.144531 C 569.332031 124.414062 573.949219 121.796875 578.628906 119.296875 C 583.3125 116.792969 588.050781 114.410156 592.851562 112.140625 C 597.648438 109.871094 602.5 107.71875 607.402344 105.6875 C 612.308594 103.65625 617.257812 101.746094 622.253906 99.960938 C 627.253906 98.171875 632.289062 96.507812 637.371094 94.964844 C 642.449219 93.425781 647.5625 92.007812 652.710938 90.71875 C 657.859375 89.429688 663.039062 88.265625 668.246094 87.230469 C 673.449219 86.195312 678.679688 85.289062 683.929688 84.511719 C 689.179688 83.730469 694.445312 83.082031 699.726562 82.5625 C 705.011719 82.042969 710.300781 81.652344 715.605469 81.390625 C 720.90625 81.128906 726.210938 81 731.519531 81 C 736.824219 81 742.128906 81.128906 747.433594 81.390625 C 752.734375 81.652344 758.023438 82.042969 763.308594 82.5625 C 768.589844 83.082031 773.855469 83.730469 779.105469 84.511719 C 784.355469 85.289062 789.585938 86.195312 794.792969 87.230469 C 799.996094 88.265625 805.175781 89.429688 810.324219 90.71875 C 815.472656 92.007812 820.585938 93.425781 825.664062 94.964844 C 830.746094 96.507812 835.78125 98.171875 840.78125 99.960938 C 845.777344 101.746094 850.730469 103.65625 855.632812 105.6875 C 860.535156 107.71875 865.386719 109.871094 870.1875 112.140625 C 874.984375 114.410156 879.722656 116.792969 884.40625 119.296875 C 889.085938 121.796875 893.703125 124.414062 898.253906 127.144531 C 902.808594 129.871094 907.292969 132.710938 911.703125 135.660156 C 916.117188 138.609375 920.457031 141.664062 924.71875 144.824219 C 928.984375 147.988281 933.167969 151.25 937.269531 154.621094 C 941.371094 157.988281 945.390625 161.453125 949.324219 165.015625 C 953.257812 168.582031 957.097656 172.242188 960.851562 175.992188 C 964.605469 179.746094 968.265625 183.589844 971.828125 187.523438 C 975.394531 191.457031 978.859375 195.472656 982.226562 199.578125 C 985.59375 203.679688 988.859375 207.863281 992.019531 212.125 C 995.183594 216.390625 998.238281 220.726562 1001.1875 225.140625 C 1004.136719 229.554688 1006.972656 234.039062 1009.703125 238.589844 C 1012.433594 243.144531 1015.046875 247.761719 1017.550781 252.441406 C 1020.050781 257.121094 1022.4375 261.863281 1024.707031 266.660156 C 1026.976562 271.457031 1029.125 276.308594 1031.15625 281.214844 C 1033.1875 286.117188 1035.097656 291.066406 1036.886719 296.066406 C 1038.675781 301.0625 1040.339844 306.101562 1041.878906 311.179688 C 1043.421875 316.261719 1044.835938 321.375 1046.125 326.523438 C 1047.414062 331.671875 1048.578125 336.847656 1049.613281 342.054688 C 1050.648438 347.261719 1051.558594 352.488281 1052.335938 357.738281 C 1053.113281 362.988281 1053.765625 368.257812 1054.285156 373.539062 C 1054.804688 378.820312 1055.195312 384.113281 1055.457031 389.414062 C 1055.714844 394.714844 1055.847656 400.019531 1055.847656 405.328125 Z M 1055.847656 405.328125 " fill-opacity="1" fill-rule="nonzero"/></g><g clip-path="url(#8424f72ea8)"><path fill="#ffffff" d="M 572.984375 227.269531 C 566.257812 227.269531 560.78125 232.777344 560.78125 239.542969 L 560.78125 627.824219 C 560.78125 634.59375 566.257812 640.101562 572.984375 640.101562 L 886.742188 640.101562 C 893.46875 640.101562 898.945312 634.59375 898.945312 627.824219 L 898.945312 239.542969 C 898.945312 232.777344 893.46875 227.269531 886.742188 227.269531 L 846.441406 227.269531 L 846.441406 244.5625 C 846.441406 254.945312 838.042969 263.394531 827.722656 263.394531 L 627.542969 263.394531 C 617.222656 263.394531 608.824219 254.945312 608.824219 244.558594 L 608.824219 227.269531 Z M 886.742188 650.621094 L 572.984375 650.621094 C 560.488281 650.621094 550.324219 640.394531 550.324219 627.824219 L 550.324219 239.542969 C 550.324219 226.976562 560.488281 216.75 572.984375 216.75 L 619.28125 216.75 L 619.28125 244.558594 C 619.28125 249.144531 622.988281 252.871094 627.542969 252.871094 L 827.722656 252.871094 C 832.277344 252.871094 835.984375 249.144531 835.984375 244.5625 L 835.984375 216.75 L 886.742188 216.75 C 899.238281 216.75 909.402344 226.976562 909.402344 239.542969 L 909.402344 627.824219 C 909.402344 640.394531 899.238281 650.621094 886.742188 650.621094 " fill-opacity="1" fill-rule="nonzero"/></g><g clip-path="url(#fca7c5aa32)"><path fill="#ffffff" d="M 627.542969 200.265625 C 622.988281 200.265625 619.28125 203.992188 619.28125 208.578125 L 619.28125 244.5625 C 619.28125 249.144531 622.988281 252.871094 627.542969 252.871094 L 827.722656 252.871094 C 832.277344 252.871094 835.980469 249.144531 835.980469 244.558594 L 835.980469 208.578125 C 835.980469 203.992188 832.277344 200.265625 827.722656 200.265625 L 782.621094 200.265625 C 774.265625 200.265625 766.640625 195.34375 762.726562 187.421875 C 757.257812 176.347656 744.484375 169.191406 730.175781 169.191406 C 715.871094 169.191406 703.09375 176.347656 697.625 187.421875 C 693.714844 195.34375 686.09375 200.265625 677.734375 200.265625 Z M 827.722656 263.390625 L 627.542969 263.390625 C 617.21875 263.390625 608.824219 254.949219 608.824219 244.5625 L 608.824219 208.578125 C 608.824219 198.191406 617.21875 189.742188 627.542969 189.742188 L 677.734375 189.742188 C 682.09375 189.742188 686.128906 187.058594 688.261719 182.738281 C 695.480469 168.117188 711.933594 158.667969 730.175781 158.667969 C 748.421875 158.667969 764.875 168.117188 772.097656 182.738281 C 774.226562 187.058594 778.261719 189.742188 782.621094 189.742188 L 827.722656 189.742188 C 838.046875 189.742188 846.441406 198.191406 846.441406 208.578125 L 846.441406 244.558594 C 846.441406 254.945312 838.046875 263.390625 827.722656 263.390625 " fill-opacity="1" fill-rule="nonzero"/></g><path fill="#ffffff" d="M 738.648438 216.46875 C 738.648438 221.351562 734.714844 225.304688 729.863281 225.304688 C 725.011719 225.304688 721.078125 221.351562 721.078125 216.46875 C 721.078125 211.585938 725.011719 207.628906 729.863281 207.628906 C 734.714844 207.628906 738.648438 211.585938 738.648438 216.46875 " fill-opacity="1" fill-rule="nonzero"/><path fill="#ffffff" d="M 840.722656 349.480469 L 749.101562 349.480469 C 744.289062 349.480469 740.386719 345.558594 740.386719 340.714844 C 740.386719 335.871094 744.289062 331.945312 749.101562 331.945312 L 840.722656 331.945312 C 845.535156 331.945312 849.4375 335.871094 849.4375 340.714844 C 849.4375 345.558594 845.535156 349.480469 840.722656 349.480469 " fill-opacity="1" fill-rule="nonzero"/><path fill="#ffffff" d="M 840.722656 444.296875 L 749.101562 444.296875 C 744.289062 444.296875 740.386719 440.367188 740.386719 435.527344 C 740.386719 430.683594 744.289062 426.757812 749.101562 426.757812 L 840.722656 426.757812 C 845.535156 426.757812 849.4375 430.683594 849.4375 435.527344 C 849.4375 440.367188 845.535156 444.296875 840.722656 444.296875 " fill-opacity="1" fill-rule="nonzero"/><path fill="#ffffff" d="M 636.386719 351.285156 C 638.125 353.914062 640.003906 356.398438 641.972656 358.796875 C 643.929688 361.203125 646.136719 363.359375 648.460938 365.398438 L 649.476562 366.289062 L 649.914062 366.640625 C 653.296875 369.183594 658.082031 368.484375 660.609375 365.082031 C 664.046875 360.453125 667.128906 355.5 670.675781 350.96875 C 674.132812 346.363281 677.667969 341.816406 681.023438 337.117188 C 684.445312 332.472656 687.789062 327.757812 691.097656 323.007812 C 694.425781 318.28125 697.765625 313.558594 700.96875 308.722656 C 701.167969 308.421875 701.15625 308.015625 700.917969 307.726562 C 700.625 307.371094 700.105469 307.320312 699.75 307.613281 C 695.292969 311.320312 690.972656 315.144531 686.636719 318.960938 C 682.28125 322.757812 677.960938 326.585938 673.722656 330.488281 C 669.417969 334.332031 665.289062 338.332031 661.085938 342.265625 C 659.078125 344.226562 656.957031 346.082031 654.820312 347.925781 C 654.457031 347.605469 654.125 347.253906 653.75 346.945312 C 651.367188 344.96875 648.894531 343.082031 646.285156 341.332031 C 643.675781 339.574219 640.980469 337.914062 638.085938 336.449219 C 635.230469 334.945312 632.203125 333.613281 628.867188 332.597656 C 628.695312 332.542969 628.507812 332.539062 628.328125 332.597656 C 627.832031 332.746094 627.558594 333.269531 627.707031 333.761719 C 628.71875 337.121094 630.042969 340.164062 631.539062 343.035156 C 632.992188 345.949219 634.644531 348.660156 636.386719 351.285156 " fill-opacity="1" fill-rule="nonzero"/><path fill="#ffffff" d="M 699.75 402.425781 C 695.292969 406.128906 690.972656 409.957031 686.636719 413.773438 C 682.28125 417.570312 677.964844 421.398438 673.722656 425.300781 C 669.417969 429.144531 665.289062 433.144531 661.085938 437.078125 C 659.078125 439.039062 656.957031 440.894531 654.820312 442.738281 C 654.457031 442.417969 654.125 442.066406 653.75 441.757812 C 651.367188 439.78125 648.894531 437.890625 646.285156 436.140625 C 643.675781 434.390625 640.980469 432.722656 638.085938 431.261719 C 635.230469 429.757812 632.207031 428.425781 628.867188 427.40625 C 628.695312 427.351562 628.507812 427.351562 628.328125 427.40625 C 627.835938 427.558594 627.558594 428.078125 627.707031 428.574219 C 628.71875 431.933594 630.042969 434.976562 631.539062 437.847656 C 632.992188 440.761719 634.644531 443.472656 636.386719 446.097656 C 638.128906 448.722656 640.003906 451.210938 641.972656 453.609375 C 643.929688 456.015625 646.136719 458.171875 648.460938 460.207031 L 649.476562 461.097656 L 649.914062 461.453125 C 653.296875 463.996094 658.082031 463.296875 660.609375 459.894531 C 664.046875 455.265625 667.128906 450.3125 670.675781 445.78125 C 674.132812 441.171875 677.667969 436.628906 681.027344 431.925781 C 684.445312 427.28125 687.789062 422.566406 691.097656 417.816406 C 694.425781 413.089844 697.765625 408.371094 700.96875 403.53125 C 701.167969 403.234375 701.15625 402.828125 700.917969 402.539062 C 700.625 402.183594 700.105469 402.132812 699.75 402.425781 " fill-opacity="1" fill-rule="nonzero"/><path fill="#ffffff" d="M 699.75 497.238281 C 695.292969 500.941406 690.972656 504.769531 686.636719 508.585938 C 682.28125 512.382812 677.960938 516.210938 673.722656 520.113281 C 669.417969 523.957031 665.289062 527.957031 661.085938 531.890625 C 659.078125 533.851562 656.957031 535.707031 654.820312 537.550781 C 654.457031 537.230469 654.125 536.878906 653.75 536.570312 C 651.367188 534.59375 648.894531 532.703125 646.285156 530.953125 C 643.675781 529.199219 640.980469 527.535156 638.085938 526.074219 C 635.230469 524.566406 632.203125 523.238281 628.867188 522.21875 C 628.695312 522.164062 628.507812 522.164062 628.328125 522.21875 C 627.835938 522.371094 627.558594 522.890625 627.707031 523.386719 C 628.71875 526.746094 630.042969 529.789062 631.539062 532.660156 C 632.992188 535.574219 634.644531 538.285156 636.386719 540.910156 C 638.125 543.535156 640.003906 546.023438 641.972656 548.421875 C 643.929688 550.828125 646.136719 552.984375 648.460938 555.019531 L 649.476562 555.914062 L 649.914062 556.265625 C 653.296875 558.804688 658.082031 558.109375 660.609375 554.707031 C 664.046875 550.078125 667.128906 545.121094 670.675781 540.59375 C 674.132812 535.984375 677.667969 531.441406 681.027344 526.738281 C 684.445312 522.09375 687.789062 517.378906 691.097656 512.632812 C 694.425781 507.902344 697.765625 503.183594 700.96875 498.34375 C 701.167969 498.046875 701.15625 497.640625 700.917969 497.351562 C 700.625 496.996094 700.105469 496.945312 699.75 497.238281 " fill-opacity="1" fill-rule="nonzero"/><path fill="#ffffff" d="M 840.722656 539.109375 L 749.101562 539.109375 C 744.289062 539.109375 740.386719 535.183594 740.386719 530.339844 C 740.386719 525.496094 744.289062 521.570312 749.101562 521.570312 L 840.722656 521.570312 C 845.535156 521.570312 849.4375 525.496094 849.4375 530.339844 C 849.4375 535.183594 845.535156 539.109375 840.722656 539.109375 " fill-opacity="1" fill-rule="nonzero"/><g clip-path="url(#9d2eb10db6)"><path fill="#9a9aa2" d="M 1307.261719 38.644531 L 1298.265625 38.644531 L 1302.761719 46.144531 Z M 1307.261719 38.644531 " fill-opacity="1" fill-rule="nonzero"/></g></svg>